# xmcd
# 
# Track frame offsets:
#     150
#     15055
#     27280
#     44335
#     55585
#     68260
#     87107
#     102237
#     111505
#     129050
#     150175
#     162612
#     183805
#     199477
# 
# Disc length: 2863
# 
# Revision: 0
# Processed by: cddbd v1.5.1PL2 Copyright (c) Steve Scherf et al.
# Submitted via: BonkEnc v1.0beta4
# 
DISCID=9e0b2d0e
DTITLE=Michal Tucny - Ve Valdickem lapaku (Live 10.11.'90)
DYEAR=1990
DGENRE=Country
TTITLE0=V tyhle skale mi Buh domov dal (I Got A Home In That Rock)
TTITLE1=Rovnou, tady rovnou (Roll On Buddy, Roll On)
TTITLE2=Jeste dlouhou cestu mam
TTITLE3=Blues folsomske veznice (Folsom Prison Blues)
TTITLE4=Osamele houkani (I Heard That Lonesome Whistle)
TTITLE5=Poveste ho vejs (Hang Him Higher)
TTITLE6=Rad se brouzdam rosou
TTITLE7=Tucnaci
TTITLE8=Dnesni noc bude dlouha (Soldier's Last Letter)
TTITLE9=Stat mimo zakon
TTITLE10=Odjizdim v dal (I'm A Long Gone Daddy)
TTITLE11=Vsichni jsou uz v Mexiku (They All Went To Mexico)
TTITLE12=Posledni kovboj
TTITLE13=Chvili spat
EXTD=YEAR: 1990
EXTT0=
EXTT1=
EXTT2=
EXTT3=
EXTT4=
EXTT5=
EXTT6=
EXTT7=
EXTT8=
EXTT9=
EXTT10=
EXTT11=
EXTT12=
EXTT13=
PLAYORDER=
